<?xml version="1.0" standalone="no"?>
<!DOCTYPE svg PUBLIC "-//W3C//DTD SVG 20010904//EN"
 "http://www.w3.org/TR/2001/REC-SVG-20010904/DTD/svg10.dtd">
<svg version="1.0" xmlns="http://www.w3.org/2000/svg"
 width="1499.000000pt" height="746.000000pt" viewBox="0 0 1499.000000 746.000000"
 preserveAspectRatio="xMidYMid meet">

<g transform="translate(0.000000,746.000000) scale(0.100000,-0.100000)"
fill="#000000" stroke="none">
<path d="M3122 7407 c-6 -24 -18 -104 -27 -178 -44 -376 -151 -670 -360 -991
-93 -144 -95 -150 -69 -258 8 -36 40 -184 70 -330 30 -146 60 -287 67 -315
l13 -50 385 -3 c211 -1 394 0 406 3 29 7 37 38 118 445 41 208 65 348 61 368
-3 19 -36 82 -74 140 -224 345 -321 606 -361 977 -22 194 -31 235 -52 235 -18
0 -19 -15 -18 -567 l0 -568 59 -38 c68 -44 100 -97 100 -169 0 -134 -87 -222
-220 -223 -109 0 -184 59 -210 167 -24 93 32 209 116 244 l32 13 7 363 c3 200
5 455 3 568 -3 179 -5 205 -19 208 -12 2 -19 -9 -27 -41z"/>
<path d="M2239 5416 c-118 -48 -312 -167 -484 -296 -119 -89 -362 -339 -463
-475 -243 -327 -403 -740 -453 -1165 -17 -147 -6 -494 21 -674 16 -108 71
-324 83 -326 23 -5 683 -87 685 -85 2 2 -21 61 -52 132 -175 410 -191 857 -44
1282 115 335 333 634 613 841 50 37 96 74 103 82 9 11 8 34 -5 104 -32 180
-17 356 46 538 12 33 21 61 21 63 0 7 -16 2 -71 -21z"/>
<path d="M4210 5402 c0 -5 9 -35 20 -68 52 -150 62 -314 30 -495 -11 -63 -20
-117 -20 -121 0 -4 44 -42 98 -85 350 -279 563 -625 653 -1063 22 -103 24
-141 24 -360 -1 -215 -3 -257 -23 -347 -29 -134 -71 -260 -126 -380 -25 -53
-43 -99 -42 -101 12 -11 591 60 654 81 35 11 39 17 64 92 27 82 60 258 78 420
22 195 8 509 -30 705 -138 711 -604 1336 -1245 1672 -108 56 -135 66 -135 50z"/>
<path d="M2712 4685 l3 -56 565 -564 c310 -310 566 -563 567 -561 5 4 -129
1220 -134 1226 -3 3 -230 6 -504 8 l-500 3 3 -56z"/>
<path d="M12035 4260 c-108 -23 -217 -60 -305 -105 -104 -53 -112 -66 -21 -34
46 16 130 37 185 46 237 37 495 -42 689 -212 131 -115 219 -257 269 -432 31
-112 32 -313 0 -433 -68 -262 -257 -483 -495 -581 -212 -88 -382 -97 -605 -33
-230 66 -410 219 -516 439 -67 138 -87 211 -95 350 -7 105 -7 108 -16 60 -5
-27 -9 -120 -9 -205 1 -140 3 -166 31 -272 93 -352 332 -631 663 -774 346
-150 762 -112 1087 98 86 56 256 223 312 307 314 466 256 1085 -138 1469 -89
87 -219 181 -313 225 -207 98 -501 133 -723 87z"/>
<path d="M6637 4018 c10 -160 10 -1669 0 -1860 l-8 -148 231 0 230 0 -7 470
-6 470 413 0 413 0 -6 -470 -6 -470 230 0 230 0 -8 138 c-10 177 -10 1698 0
1865 l7 127 -231 0 -232 0 7 -172 c3 -95 9 -287 12 -425 l7 -253 -423 0 -422
0 6 218 c3 119 9 310 12 425 l6 207 -231 0 -232 0 8 -122z"/>
<path d="M8817 4043 c10 -128 10 -1786 0 -1925 l-8 -108 241 0 241 0 -8 123
c-10 158 -10 1782 0 1910 l7 97 -240 0 -240 0 7 -97z"/>
<path d="M9757 4023 c10 -153 10 -1708 0 -1880 l-8 -133 681 0 680 0 0 88 c0
49 3 129 6 178 l7 89 -159 -7 c-88 -3 -303 -9 -478 -13 l-319 -8 7 94 c3 52
11 436 16 854 5 418 12 781 16 808 l7 47 -232 0 -232 0 8 -117z"/>
<path d="M13607 4023 c10 -153 10 -1708 0 -1880 l-8 -133 679 0 679 0 6 68 c4
37 7 116 7 176 l0 109 -187 -6 c-104 -4 -318 -10 -477 -14 l-289 -6 7 69 c3
38 10 405 15 815 6 410 13 785 17 832 l7 87 -232 0 -232 0 8 -117z"/>
<path d="M2640 4068 c0 -2 -14 -127 -30 -278 -43 -399 -50 -353 73 -476 56
-56 340 -332 630 -613 584 -564 543 -533 635 -491 50 23 50 24 27 225 -9 72
-20 175 -26 230 -5 55 -12 111 -15 124 -7 31 -48 73 -715 732 -473 466 -579
566 -579 547z"/>
<path d="M2510 2862 c0 -5 -13 -137 -30 -292 -16 -155 -30 -293 -30 -306 0
-20 9 -26 69 -44 150 -45 330 -128 532 -246 69 -41 132 -74 140 -73 8 0 57 22
109 49 l95 48 -365 367 c-370 372 -520 515 -520 497z"/>
<path d="M5975 2254 c-279 -50 -524 -87 -1085 -164 -807 -112 -1238 -249
-1680 -534 -337 -217 -612 -516 -754 -818 -66 -139 -154 -412 -180 -555 -4
-25 -1 -35 12 -42 44 -24 417 -106 433 -95 3 2 37 72 74 156 86 193 165 353
218 437 219 351 507 590 892 740 242 95 462 147 1043 246 207 35 442 78 522
94 278 57 652 142 670 151 22 12 43 57 110 234 62 168 71 206 44 205 -11 -1
-154 -25 -319 -55z"/>
<path d="M140 2297 c0 -41 142 -403 168 -429 16 -15 264 -81 507 -133 171 -37
380 -71 610 -100 410 -51 585 -88 892 -191 106 -35 200 -64 208 -64 9 0 60 42
113 93 53 51 136 123 185 160 48 38 87 72 87 76 0 18 -240 114 -485 194 -165
54 -253 77 -433 111 -124 24 -212 35 -762 102 -265 32 -588 85 -815 134 -198
42 -275 55 -275 47z"/>
<path d="M13052 1960 c4 -106 2 -120 -11 -114 -83 35 -182 24 -243 -26 -135
-112 -117 -374 29 -436 52 -22 132 -18 189 11 27 14 50 25 52 25 1 0 2 -9 2
-20 0 -16 7 -20 33 -20 l32 0 0 350 0 350 -44 0 -43 0 4 -120z m-17 -174 l26
-17 -3 -152 -3 -152 -30 -14 c-16 -8 -53 -15 -82 -15 -63 -1 -98 22 -131 85
-48 91 -10 238 71 275 40 18 117 13 152 -10z"/>
<path d="M11356 1860 c-32 -6 -60 -11 -61 -12 -1 -2 -5 -18 -8 -35 l-6 -33 47
8 c152 23 224 0 230 -76 l3 -40 -58 -7 c-103 -11 -154 -27 -189 -57 -85 -75
-60 -208 43 -234 41 -11 132 3 169 25 43 26 44 26 44 1 0 -16 7 -20 38 -20
l37 0 -3 187 c-3 214 -12 246 -73 275 -44 22 -136 30 -213 18z m204 -320 c0
-68 -1 -70 -32 -86 -44 -23 -142 -23 -168 1 -25 23 -26 75 -2 104 23 29 85 50
150 51 l52 0 0 -70z"/>
<path d="M11959 1861 c-192 -40 -267 -284 -129 -421 52 -53 99 -70 191 -70 73
0 109 18 109 55 0 23 -1 23 -79 18 -68 -5 -84 -3 -117 16 -22 12 -51 38 -64
58 -34 50 -36 166 -4 209 48 65 107 83 200 62 30 -7 32 -5 37 29 4 21 5 38 4
39 -8 7 -118 11 -148 5z"/>
<path d="M12313 1860 c-77 -11 -83 -15 -83 -51 0 -28 2 -31 25 -25 93 23 207
14 235 -19 19 -23 26 -95 9 -95 -59 -2 -170 -24 -205 -41 -24 -11 -52 -35 -64
-53 -24 -39 -26 -105 -5 -145 32 -62 140 -79 232 -37 50 24 52 24 58 5 5 -14
16 -19 39 -19 l32 0 -4 198 c-4 216 -7 229 -68 264 -36 20 -131 29 -201 18z
m197 -319 l0 -69 -35 -16 c-37 -18 -115 -24 -151 -12 -29 9 -48 55 -36 87 20
51 74 76 170 78 l52 1 0 -69z"/>
<path d="M13400 1859 c-40 -16 -91 -70 -116 -124 -30 -64 -33 -170 -5 -230 23
-51 89 -111 138 -124 42 -12 173 -13 213 -2 18 5 26 15 28 36 l3 30 -109 0
c-103 0 -110 1 -145 28 -39 30 -63 66 -68 107 l-4 25 168 3 167 2 0 58 c-1 91
-44 165 -113 191 -35 13 -123 13 -157 0z m150 -76 c23 -20 33 -40 37 -70 l6
-43 -80 0 c-44 0 -101 -3 -127 -6 -41 -6 -46 -5 -46 12 0 11 9 37 19 60 34 74
133 98 191 47z"/>
<path d="M13957 1855 c-22 -7 -49 -23 -61 -34 -30 -28 -36 -27 -36 10 0 31 0
31 -42 24 -24 -4 -44 -8 -44 -9 -1 0 2 -28 8 -61 5 -33 8 -138 6 -233 l-3
-172 43 0 42 0 0 185 0 185 33 20 c44 28 89 34 132 20 60 -20 69 -54 62 -247
l-6 -163 44 0 44 0 -5 168 c-6 190 -2 206 59 236 47 22 116 15 143 -16 17 -18
19 -39 19 -204 l0 -184 43 0 44 0 -4 198 c-3 168 -6 202 -21 225 -25 39 -74
60 -138 61 -46 1 -65 -5 -107 -31 l-50 -31 -22 23 c-13 14 -43 28 -72 34 -60
13 -64 13 -111 -4z"/>
<path d="M14570 1844 c0 -3 31 -78 68 -167 78 -184 87 -207 101 -262 21 -80
-28 -166 -103 -181 -32 -6 -37 -10 -32 -28 3 -11 6 -27 6 -35 0 -16 58 -8 101
14 38 20 53 49 90 166 17 57 50 147 71 199 80 192 101 246 109 273 7 27 7 27
-36 27 -41 0 -44 -2 -50 -32 -3 -18 -26 -96 -50 -173 -24 -77 -45 -148 -47
-159 -1 -10 -32 68 -68 173 l-64 191 -48 0 c-27 0 -48 -3 -48 -6z"/>
<path d="M470 1562 c0 -26 180 -289 240 -351 42 -43 47 -44 235 -66 428 -50
702 -121 1020 -265 211 -95 187 -95 230 -3 21 43 60 115 87 161 39 65 47 86
38 97 -15 18 -129 65 -303 126 -234 83 -369 112 -832 179 -314 46 -372 56
-566 99 -153 35 -149 34 -149 23z"/>
<path d="M5800 1535 c-235 -35 -796 -132 -965 -166 -584 -118 -940 -266 -1229
-508 -144 -121 -269 -286 -401 -529 -59 -109 -155 -312 -155 -329 0 -5 442 5
446 10 1 1 54 83 119 182 223 341 383 498 641 630 303 155 690 252 1274 321
80 9 155 20 167 25 12 4 50 43 84 86 64 79 199 280 199 295 0 10 3 11 -180
-17z"/>
<path d="M5365 873 c-81 -10 -299 -58 -429 -93 -477 -131 -653 -235 -991 -588
-65 -67 -115 -125 -112 -129 9 -9 237 44 362 84 233 74 529 213 748 350 146
92 335 234 421 315 73 69 73 70 1 61z"/>
<path d="M1101 797 c140 -133 462 -347 704 -467 77 -38 149 -71 160 -72 16 -3
23 12 52 112 17 63 35 125 38 137 5 21 -9 30 -155 103 -194 97 -277 131 -418
170 -113 31 -323 74 -407 84 l-50 5 76 -72z"/>
</g>
</svg>
